<?xml version="1.0" encoding="utf-8"?>
<!-- Generator: Adobe Illustrator 16.0.3, SVG Export Plug-In . SVG Version: 6.00 Build 0)  -->
<!DOCTYPE svg PUBLIC "-//W3C//DTD SVG 1.1//EN" "http://www.w3.org/Graphics/SVG/1.1/DTD/svg11.dtd">
<svg version="1.1" id="Capa_1" xmlns="http://www.w3.org/2000/svg" xmlns:xlink="http://www.w3.org/1999/xlink" x="0px" y="0px"
	 width="566.93px" height="566.93px" viewBox="0 0 566.93 566.93" enable-background="new 0 0 566.93 566.93" xml:space="preserve">
<path d="M173.75,232.93"/>
<g>
	<path fill-rule="evenodd" clip-rule="evenodd" d="M274.269,76.266c0,11.024,0,20.606,0,30.186c0,30.247-0.054,60.494,0.065,90.739
		c0.021,4.732-0.76,7.42-6.896,8.115c-38.353,4.358-68.727,36.424-69.452,72.779c-0.768,38.53,27.581,71.276,67.03,77.41
		c2.834,0.443,5.685,0.83,8.866,1.294c0,42.414,0,84.641,0,127.9c-75.82-4.126-136.604-33.683-176.952-93.719
		c-48.38-71.991-48.801-146.867-1.17-219.248C135.919,110.695,197.132,80.54,274.269,76.266z M173.384,354.495
		c-3.659-8.792-7.321-17.58-11.431-27.452c5.166,1.701,9.187,3.021,14.108,4.641c-1.781-6.104-3.325-11.396-4.87-16.684
		c0.418-0.138,0.836-0.271,1.254-0.408c8.231,9.756,16.461,19.517,24.692,29.271c-14.96-33.938-19.366-67.697,0.841-101.815
		c-4.883,0.346-8.103,0.573-12.205,0.863c2.006-7.04,3.768-13.214,5.533-19.386c-0.369-0.145-0.738-0.288-1.105-0.436
		c-3.749,4.669-7.498,9.335-11.247,13.999c-0.399-0.168-0.798-0.336-1.197-0.504c0.263-5.479,0.524-10.958,0.787-16.434
		c-0.785-0.313-1.572-0.627-2.359-0.94c-5.598,9.23-11.198,18.461-16.798,27.695c-0.404-0.13-0.806-0.255-1.211-0.385
		c3.597-9.58,7.194-19.16,10.791-28.742c-0.394-0.349-0.79-0.701-1.184-1.049c-6.822,7.101-13.644,14.203-20.175,21.003
		c0.233-1.533,0.575-3.737,0.917-5.94c-0.828-0.565-1.656-1.131-2.481-1.699c-4.805,5.415-9.61,10.828-14.415,16.243
		c-0.728-0.532-1.458-1.064-2.186-1.594c9.29-14.05,18.579-28.1,27.869-42.147c-0.106-0.193-0.212-0.387-0.318-0.578
		c-4.436,3.53-8.877,7.061-13.56,10.785c1.393-4.717,2.761-9.345,4.181-14.16c-2.97-0.219-5.014-0.369-8.894-0.654
		c4.325-7.267,8.046-13.525,11.771-19.786c-0.391-0.301-0.785-0.601-1.176-0.904c-6.811,7.308-13.622,14.615-20.911,22.435
		c1.544-7.002,2.954-13.396,4.362-19.786c-0.665-0.262-1.33-0.524-1.998-0.784c-8.035,14.439-16.071,28.881-24.638,44.281
		c4.482-20.02,13.666-36.905,25.594-52.654c-21.22,13.411-39.55,38.283-46.985,62.873c-14.284,47.234-7.685,92.478,15.059,136.059
		c4.034,7.729,9.216,14.932,13.869,22.374c0.483-0.188,0.966-0.377,1.447-0.565c0.174-2.705,0.345-5.41,0.543-8.502
		c2.277,0.933,3.95,1.62,7.275,2.98c-11.801-16.796-19.136-33.546-22.85-51.728c13.02,21.294,26.253,42.358,48.823,56.729
		c-4.322-10.372-8.641-20.749-12.96-31.126c0.79-0.56,1.583-1.126,2.375-1.686c3.448,4.228,6.895,8.456,10.343,12.689
		c0.529-0.377,1.059-0.754,1.585-1.126c-3.263-9.781-6.526-19.557-9.789-29.338c0.342-0.138,0.684-0.27,1.026-0.407
		c2.09,2.563,4.184,5.12,6.274,7.682c0.334-0.152,0.665-0.311,0.996-0.468c-2.332-8.946-4.664-17.896-6.999-26.842
		C149.981,333.624,159.298,345.606,173.384,354.495z"/>
	<path fill-rule="evenodd" clip-rule="evenodd" d="M278.194,326.522c-26.983,0.046-49.406-21.039-49.2-46.255
		c0.212-25.074,22.738-46.133,49.038-45.838c27.331,0.306,49.363,21.04,49.2,46.307
		C327.068,305.804,304.928,326.487,278.194,326.522z"/>
	<g>
		<path d="M336.564,75.942h79.74v211.296H540.75v69.03H336.564V75.942z"/>
	</g>
	<g>
		<path d="M540.75,486.68H337.347v-67.433c0-12.496,1.655-22.053,4.989-28.665c3.334-6.607,9.507-11.936,18.535-15.985
			c9.013-4.045,19.997-6.067,32.94-6.067c11.293,0,21.022,1.543,29.215,4.641c8.182,3.098,14.812,7.361,19.909,12.776
			c3.236,3.459,5.918,8.202,8.041,14.213c2.497-4.819,5-8.329,7.503-10.535c1.661-1.487,5.224-3.637,10.69-6.47
			c5.468-2.822,9.675-4.712,12.64-5.664l58.94-19.593v45.711l-62.16,21.625c-8.046,2.74-13.274,5.181-15.675,7.325
			c-3.154,2.919-4.729,6.22-4.729,9.913v3.576h82.563V486.68z M419.769,446.048v-17.061c0-1.844-0.929-5.415-2.785-10.718
			c-0.825-2.68-2.948-4.865-6.379-6.566c-3.427-1.691-7.352-2.542-11.793-2.542c-6.575,0-11.603,1.339-15.126,4.019
			c-3.502,2.68-5.267,7.708-5.267,15.095v17.773H419.769z"/>
	</g>
</g>
</svg>
